<svg id="fi-rr-shopping-cart" xmlns="http://www.w3.org/2000/svg" width="26.888" height="27.782" viewBox="0 0 26.888 27.782">
  <path id="Path_26" data-name="Path 26" d="M26.086,4.683a3.438,3.438,0,0,0-2.645-1.237H4.872l-.048-.4A3.446,3.446,0,0,0,1.4,0H1.149a1.149,1.149,0,0,0,0,2.3H1.4a1.148,1.148,0,0,1,1.14,1.014l1.58,13.438a5.743,5.743,0,0,0,5.7,5.073H21.822a1.149,1.149,0,1,0,0-2.3H9.828a3.446,3.446,0,0,1-3.239-2.3H20.28A5.743,5.743,0,0,0,25.931,12.5l.9-5a3.439,3.439,0,0,0-.747-2.821ZM24.578,7.1l-.9,5a3.446,3.446,0,0,1-3.4,2.835H6.224L5.143,5.743h18.3A1.149,1.149,0,0,1,24.578,7.1Z" fill="#fff"/>
  <circle id="Ellipse_7" data-name="Ellipse 7" cx="2.5" cy="2.5" r="2.5" transform="translate(5.739 22.782)" fill="#fff"/>
  <circle id="Ellipse_8" data-name="Ellipse 8" cx="2.5" cy="2.5" r="2.5" transform="translate(16.739 22.782)" fill="#fff"/>
</svg>
