<svg xmlns="http://www.w3.org/2000/svg" width="24.655" height="21.663" viewBox="0 0 24.655 21.663">
  <path id="fi-rr-heart" d="M17.97,1.917a6.572,6.572,0,0,0-5.648,3.389A6.572,6.572,0,0,0,6.675,1.917,6.983,6.983,0,0,0,0,9.156c0,4.669,4.915,9.769,9.037,13.226a5.108,5.108,0,0,0,6.572,0c4.122-3.457,9.037-8.557,9.037-13.226A6.983,6.983,0,0,0,17.97,1.917ZM14.289,20.812a3.053,3.053,0,0,1-3.933,0c-5.276-4.427-8.3-8.674-8.3-11.655A4.929,4.929,0,0,1,6.675,3.971,4.929,4.929,0,0,1,11.3,9.156a1.027,1.027,0,1,0,2.054,0A4.929,4.929,0,0,1,17.97,3.971a4.929,4.929,0,0,1,4.621,5.186c0,2.981-3.026,7.228-8.3,11.651Z" transform="translate(0.005 -1.917)" fill="#242424"/>
</svg>
