<svg xmlns="http://www.w3.org/2000/svg" width="26.888" height="27.074" viewBox="0 0 26.888 27.074">
  <path id="Path_31" data-name="Path 31" d="M17.08-14.184h-22.9a1.963,1.963,0,0,0-1.422.572,1.851,1.851,0,0,0-.587,1.375V10.943a1.851,1.851,0,0,0,.587,1.375,1.963,1.963,0,0,0,1.422.572h22.9a1.926,1.926,0,0,0,1.391-.572,1.851,1.851,0,0,0,.587-1.375V-12.237a1.851,1.851,0,0,0-.587-1.375A1.926,1.926,0,0,0,17.08-14.184ZM.329,8.47H-3.72V-3.738H.329ZM-1.711-5.407h-.031a2.2,2.2,0,0,1-1.607-.6,2.027,2.027,0,0,1-.618-1.514,2,2,0,0,1,.634-1.514,2.3,2.3,0,0,1,1.653-.6,2.246,2.246,0,0,1,1.638.6A2.027,2.027,0,0,1,.576-7.524,2.027,2.027,0,0,1-.042-6.009,2.288,2.288,0,0,1-1.711-5.407ZM14.948,8.47H10.9V1.918A3.508,3.508,0,0,0,10.435-.06,1.779,1.779,0,0,0,8.859-.833,2.132,2.132,0,0,0,7.5-.369,2.9,2.9,0,0,0,6.758.651a3.216,3.216,0,0,0-.124.989V8.47H2.585V2.783q.031-5.81,0-6.521H6.634v1.731a4.062,4.062,0,0,1,3.647-2.009,4.338,4.338,0,0,1,3.338,1.329,5.92,5.92,0,0,1,1.329,4.141Z" transform="translate(7.83 14.184)" fill="#fff"/>
</svg>
