<svg xmlns="http://www.w3.org/2000/svg" width="27.074" height="21.974" viewBox="0 0 27.074 21.974">
  <path id="Path_33" data-name="Path 33" d="M19.19-10.112a11.894,11.894,0,0,1-3.214.9,5.149,5.149,0,0,0,1.5-1.3,5.537,5.537,0,0,0,.943-1.793,10.127,10.127,0,0,1-3.523,1.36,5.11,5.11,0,0,0-1.808-1.3,5.56,5.56,0,0,0-2.241-.464,5.322,5.322,0,0,0-2.782.757A5.646,5.646,0,0,0,6.055-9.926a5.407,5.407,0,0,0-.742,2.782,5.609,5.609,0,0,0,.124,1.267,15.669,15.669,0,0,1-6.4-1.731A15.827,15.827,0,0,1-6-11.688,5.6,5.6,0,0,0-6.74-8.922a5.47,5.47,0,0,0,.664,2.658A5.6,5.6,0,0,0-4.268-4.271a5.04,5.04,0,0,1-2.5-.711v.093A5.365,5.365,0,0,0-5.52-1.366,5.463,5.463,0,0,0-2.321.551,5.625,5.625,0,0,1-3.8.736,5.21,5.21,0,0,1-4.824.643,5.355,5.355,0,0,0-2.877,3.379a5.382,5.382,0,0,0,3.214,1.1,10.634,10.634,0,0,1-3.2,1.762,11.162,11.162,0,0,1-3.693.618q-.4,0-1.236-.062h-.093A15.5,15.5,0,0,0,.646,9.266,16,16,0,0,0,7.414,7.844a15.019,15.019,0,0,0,4.945-3.709A16.578,16.578,0,0,0,15.388-.933,15.893,15.893,0,0,0,16.408-6.5v-.742A11.189,11.189,0,0,0,19.19-10.112Z" transform="translate(7.884 12.708)" fill="#fff"/>
</svg>
