<svg xmlns="http://www.w3.org/2000/svg" width="20" height="19.74" viewBox="0 0 20 19.74">
  <path id="Path_25" data-name="Path 25" d="M16-2.92a.472.472,0,0,1-.11-.28.526.526,0,0,1,.07-.3,8.5,8.5,0,0,0,1.38-4.7,8.533,8.533,0,0,0-1.18-4.38,8.746,8.746,0,0,0-3.12-3.12,8.427,8.427,0,0,0-4.36-1.18A8.533,8.533,0,0,0,4.3-15.7a8.746,8.746,0,0,0-3.12,3.12A8.533,8.533,0,0,0,0-8.2,8.533,8.533,0,0,0,1.18-3.82,8.745,8.745,0,0,0,4.3-.7,8.533,8.533,0,0,0,8.68.48,8.6,8.6,0,0,0,11.34.06a8.976,8.976,0,0,0,2.34-1.18.4.4,0,0,1,.29-.09.363.363,0,0,1,.27.13L17.4,2.08q.02.02.16.14l.18.16.36.38a.388.388,0,0,0,.52,0L19.9,1.48a.352.352,0,0,0,.1-.26.352.352,0,0,0-.1-.26ZM13.92-4.16a6.311,6.311,0,0,1-.96,1.02,6.451,6.451,0,0,1-1.98,1.17,6.532,6.532,0,0,1-2.3.41,6.5,6.5,0,0,1-3.34-.9,6.477,6.477,0,0,1-2.4-2.4,6.5,6.5,0,0,1-.9-3.34,6.5,6.5,0,0,1,.9-3.34,6.477,6.477,0,0,1,2.4-2.4,6.5,6.5,0,0,1,3.34-.9,6.5,6.5,0,0,1,3.34.9,6.523,6.523,0,0,1,2.38,2.4,6.5,6.5,0,0,1,.9,3.34,6.469,6.469,0,0,1-.36,2.15A6.733,6.733,0,0,1,13.92-4.16Z" transform="translate(0 16.88)" fill="#80bb01"/>
</svg>
