<svg xmlns="http://www.w3.org/2000/svg" width="30.566" height="30.566" viewBox="0 0 30.566 30.566">
  <path id="Path_32" data-name="Path 32" d="M6.358-7.854A7.7,7.7,0,0,0,2.4-6.788,8.053,8.053,0,0,0-.5-3.9,7.644,7.644,0,0,0-1.585.073,7.729,7.729,0,0,0-.519,4.044a7.9,7.9,0,0,0,2.905,2.89A7.811,7.811,0,0,0,6.373,8a7.729,7.729,0,0,0,3.971-1.066,7.932,7.932,0,0,0,2.89-2.89A7.729,7.729,0,0,0,14.3.073,7.729,7.729,0,0,0,13.234-3.9a7.932,7.932,0,0,0-2.89-2.89A7.757,7.757,0,0,0,6.358-7.854Zm0,12.826A4.755,4.755,0,0,1,3.9,4.307,4.983,4.983,0,0,1,2.108,2.515,4.755,4.755,0,0,1,1.443.058a4.674,4.674,0,0,1,.664-2.442A5.022,5.022,0,0,1,3.9-4.161a4.755,4.755,0,0,1,2.457-.664,4.755,4.755,0,0,1,2.457.664,5.022,5.022,0,0,1,1.793,1.777A4.674,4.674,0,0,1,11.272.058a4.755,4.755,0,0,1-.664,2.457A4.983,4.983,0,0,1,8.815,4.307,4.755,4.755,0,0,1,6.358,4.972Zm6.49-20.182H-.133A8.535,8.535,0,0,0-4.552-14a8.7,8.7,0,0,0-3.183,3.2A8.624,8.624,0,0,0-8.91-6.4V6.548a8.624,8.624,0,0,0,1.174,4.4,8.7,8.7,0,0,0,3.183,3.2,8.535,8.535,0,0,0,4.42,1.205h12.98a8.7,8.7,0,0,0,4.45-1.205A8.887,8.887,0,0,0,20.451,11a8.7,8.7,0,0,0,1.205-4.45V-6.4a8.7,8.7,0,0,0-1.205-4.45A8.887,8.887,0,0,0,17.3-14,8.7,8.7,0,0,0,12.848-15.21ZM18.627,6.548a5.755,5.755,0,0,1-5.779,5.779H-.133a5.6,5.6,0,0,1-2.89-.773,5.749,5.749,0,0,1-2.086-2.1,5.678,5.678,0,0,1-.773-2.905V-6.4a5.678,5.678,0,0,1,.773-2.905,5.749,5.749,0,0,1,2.086-2.1,5.6,5.6,0,0,1,2.89-.773h12.98a5.678,5.678,0,0,1,2.905.773,5.712,5.712,0,0,1,2.1,2.1A5.678,5.678,0,0,1,18.627-6.4Zm-4.2-16.72a2.023,2.023,0,0,0-1.483.618,2.023,2.023,0,0,0-.618,1.483A1.973,1.973,0,0,0,12.94-6.6a2.049,2.049,0,0,0,1.483.6,2,2,0,0,0,1.468-.6,2,2,0,0,0,.6-1.468,2.049,2.049,0,0,0-.6-1.483A1.973,1.973,0,0,0,14.424-10.172Z" transform="translate(8.91 15.21)" fill="#fff"/>
</svg>
