<svg xmlns="http://www.w3.org/2000/svg" xmlns:xlink="http://www.w3.org/1999/xlink" width="181.418" height="28.176" viewBox="0 0 181.418 28.176">
  <defs>
    <radialGradient id="radial-gradient" cx="0.524" cy="0.594" r="0.614" gradientTransform="translate(0.036) scale(0.928 1)" gradientUnits="objectBoundingBox">
      <stop offset="0.02" stop-color="#80bb01"/>
      <stop offset="1" stop-color="#008459"/>
    </radialGradient>
  </defs>
  <g id="Section_1" data-name="Section 1" transform="translate(-889 -4015)">
    <g id="Logo" transform="translate(888.973 4014.994)">
      <path id="Path_1" data-name="Path 1" d="M250.589,467.957c-4.045-7.015-8.415-12.352-9.408-12.239-1-.129-5.363,5.224-9.408,12.239s-6.289,13.1-5.661,13.9c.221.515,2.527,1.148,6,1.57,1.029.129,2.167.232,3.376.319,2.573.2,4.812-.067,6.341-1.946,1.884-2.3,1.889-6.125-.206-9.326a.185.185,0,0,0-.329.139,11.91,11.91,0,0,1-.1,3.68,3.414,3.414,0,0,1-3.253,3.031,3.263,3.263,0,0,1-3.047-2.09c-.515-1.292,0-2.851.515-4.354a28.478,28.478,0,0,1,5.3-8.43.587.587,0,0,1,.947,0c1.029,1.07,6.176,7.206,6.176,12.841a6.691,6.691,0,0,1-3.9,6.089.268.268,0,0,0,.108.515c6.737-.227,11.884-1.225,12.224-2.059C256.884,481.081,254.635,474.962,250.589,467.957Z" transform="translate(-225.98 -455.71)" fill="url(#radial-gradient)"/>
      <path id="Path_2" data-name="Path 2" d="M308.108,480h3.52a7.679,7.679,0,0,1-2.959,4.5,8.94,8.94,0,0,1-5.486,1.616,7.836,7.836,0,0,1-6.258-2.6q-2.249-2.6-2.254-7.247a10.435,10.435,0,0,1,2.182-7.036,8.017,8.017,0,0,1,6.264-2.6,8.438,8.438,0,0,1,6.542,2.532,10.769,10.769,0,0,1,2.249,7.247v.772a1.333,1.333,0,0,1-.067.515H299.667a4.834,4.834,0,0,0,1.055,3.237,3.314,3.314,0,0,0,2.743,1.122,3.959,3.959,0,0,0,2.059-.489.967.967,0,0,0,.391-.247q.17-.18.386-.386a1.545,1.545,0,0,1,.515-.566A2.121,2.121,0,0,1,308.108,480Zm-8.441-5.486h7.175a4.57,4.57,0,0,0-.983-2.815,3.392,3.392,0,0,0-2.6-.983,3.428,3.428,0,0,0-2.532.983A4.035,4.035,0,0,0,299.667,474.51Z" transform="translate(-259.304 -461.007)" fill="#fff"/>
      <path id="Path_3" data-name="Path 3" d="M343.683,480h3.52a7.72,7.72,0,0,1-2.954,4.5,8.95,8.95,0,0,1-5.486,1.616,7.842,7.842,0,0,1-6.264-2.6q-2.249-2.6-2.249-7.247a10.451,10.451,0,0,1,2.177-7.036,8.007,8.007,0,0,1,6.264-2.6,8.418,8.418,0,0,1,6.542,2.532,9.676,9.676,0,0,1,1.827,3.6h-4.92a4.283,4.283,0,0,0-.705-1.029,3.392,3.392,0,0,0-2.6-.983,3.443,3.443,0,0,0-2.532.983q-1.266,1.413-1.266,4.632c0,2.146.422,3.685,1.266,4.575a3.314,3.314,0,0,0,2.743,1.122,3.99,3.99,0,0,0,2.059-.489.986.986,0,0,0,.386-.247l.386-.386a3.087,3.087,0,0,1,.561-.566,1.966,1.966,0,0,1,1.251-.381Z" transform="translate(-276.572 -461.007)" fill="#fff"/>
      <path id="Path_4" data-name="Path 4" d="M368.013,484.055a6.968,6.968,0,0,1-2.11-3.412,15.7,15.7,0,0,1-.633-4.467,14,14,0,0,1,.515-3.8,7.8,7.8,0,0,1,1.652-3.165,7.283,7.283,0,0,1,4.714-2.5,10.871,10.871,0,0,1,5.2.453,7.205,7.205,0,0,1,3.942,3.659,11.684,11.684,0,0,1,1.194,5.42,13.312,13.312,0,0,1-.515,3.865,9.7,9.7,0,0,1-1.266,2.748,7.025,7.025,0,0,1-4.287,2.882,9.6,9.6,0,0,1-4.678.108A8.236,8.236,0,0,1,368.013,484.055Zm3.376-12.383a6.489,6.489,0,0,0-1.333,4.822q.144,3.2,1.194,4.467a3.149,3.149,0,0,0,1.477.947,3.366,3.366,0,0,0,2.146.072,3.6,3.6,0,0,0,1.935-1.585,8.015,8.015,0,0,0,.916-4.081,7.12,7.12,0,0,0-.813-3.8,3.639,3.639,0,0,0-1.863-1.616,3.4,3.4,0,0,0-2.11-.036,3.711,3.711,0,0,0-1.549.808Z" transform="translate(-293.568 -460.985)" fill="#fff"/>
      <path id="Path_5" data-name="Path 5" d="M417.976,485.765h-2.465a2.29,2.29,0,0,1-2.393-2.393V473.8a2.892,2.892,0,0,0-1.029-2.46,3.7,3.7,0,0,0-2.285-.777,3.541,3.541,0,0,0-2.249.777,2.934,2.934,0,0,0-.988,2.46v11.961H401.64V474.792q0-4.786,2.5-6.4a10.871,10.871,0,0,1,5.523-1.76,10.607,10.607,0,0,1,5.7,1.616q2.6,1.621,2.6,6.547Z" transform="translate(-311.219 -461.007)" fill="#fff"/>
      <path id="Path_6" data-name="Path 6" d="M448.843,484.984a8.749,8.749,0,0,1-3.129.947,27.792,27.792,0,0,1-2.923.175,7.39,7.39,0,0,1-4.431-1.369q-1.9-1.374-1.9-4.539c0-1.971.571-3.376,1.724-4.22a9.949,9.949,0,0,1,4.4-1.688,4.015,4.015,0,0,0,.844-.108c.329-.067.705-.129,1.127-.175,2.059-.278,3.088-.89,3.088-1.827a1.333,1.333,0,0,0-1.091-1.374,7.209,7.209,0,0,0-2-.314,5.18,5.18,0,0,0-1.76.278,1.935,1.935,0,0,0-1.127,1.06h-4.709a5.429,5.429,0,0,1,1.966-3.6,8.167,8.167,0,0,1,5.419-1.616,10.586,10.586,0,0,1,5.909,1.338,4.519,4.519,0,0,1,2.059,3.937v6.4a8.024,8.024,0,0,1-1.029,4.4A6.243,6.243,0,0,1,448.843,484.984Zm-1.127-8.657a13.311,13.311,0,0,1-2.743.916l-1.616.35a4.184,4.184,0,0,0-1.832.916,2.861,2.861,0,0,0-.515,1.544,2.285,2.285,0,0,0,.633,1.688,2.681,2.681,0,0,0,1.832.561,3.891,3.891,0,0,0,4.22-4.22Z" transform="translate(-328.118 -460.997)" fill="#fff"/>
      <path id="Path_7" data-name="Path 7" d="M478.816,480.99a36.158,36.158,0,0,1-5.028-.072q-2.707-.211-2.707-3.443V456.79h2.532a2.244,2.244,0,0,1,1.616.7,2.321,2.321,0,0,1,.705,1.693v3.165h2.882v.983a2.275,2.275,0,0,1-.705,1.724,2.352,2.352,0,0,1-1.688.669h-.489v10.412c0,.8.468,1.194,1.405,1.194h1.477Z" transform="translate(-344.92 -456.231)" fill="#fff"/>
      <path id="Path_8" data-name="Path 8" d="M504.635,467.449v10.973c0,3.335-.865,5.512-2.573,6.547a10.992,10.992,0,0,1-5.7,1.544,11.286,11.286,0,0,1-5.522-1.688q-2.5-1.544-2.5-6.4V467.449h4.925V479.41a2.944,2.944,0,0,0,.983,2.46,3.535,3.535,0,0,0,2.254.777,3.663,3.663,0,0,0,2.285-.777,2.892,2.892,0,0,0,1.029-2.46v-9.568a2.352,2.352,0,0,1,.669-1.688,2.275,2.275,0,0,1,1.724-.705Z" transform="translate(-353.296 -461.404)" fill="#fff"/>
      <path id="Path_9" data-name="Path 9" d="M522.994,486.125v-9.074a11.579,11.579,0,0,1,.808-4.632,7.627,7.627,0,0,1,2.213-2.99,8.749,8.749,0,0,1,3.134-1.544,13.816,13.816,0,0,1,3.69-.515h.705v4.992h-1.616a4.077,4.077,0,0,0-3.026.988,4.214,4.214,0,0,0-.983,3.088v9.64Z" transform="translate(-370.112 -461.366)" fill="#fff"/>
      <path id="Path_10" data-name="Path 10" d="M558.433,480h3.515a7.674,7.674,0,0,1-2.954,4.5,8.951,8.951,0,0,1-5.486,1.616,7.842,7.842,0,0,1-6.264-2.6q-2.249-2.6-2.244-7.247a10.45,10.45,0,0,1,2.177-7.036,8.007,8.007,0,0,1,6.263-2.6,8.418,8.418,0,0,1,6.542,2.532q2.316,2.532,2.254,7.247v.772a1.209,1.209,0,0,1-.072.515H549.987a5,5,0,0,0,1.029,3.237,3.325,3.325,0,0,0,2.743,1.122,3.989,3.989,0,0,0,2.059-.489.987.987,0,0,0,.386-.247l.386-.386a1.5,1.5,0,0,1,.515-.566A2.11,2.11,0,0,1,558.433,480Zm-8.446-5.486h7.174a4.569,4.569,0,0,0-.983-2.815,3.381,3.381,0,0,0-2.6-.983,3.443,3.443,0,0,0-2.532.983A4.056,4.056,0,0,0,549.987,474.51Z" transform="translate(-380.795 -461.007)" fill="#fff"/>
    </g>
  </g>
</svg>
