<svg xmlns="http://www.w3.org/2000/svg" width="19.516" height="21.662" viewBox="0 0 19.516 21.662">
  <path id="User" d="M2.3,21.662H0a9.816,9.816,0,0,1,3.475-5.439,10.163,10.163,0,0,1,12.566,0,9.815,9.815,0,0,1,3.474,5.438h-2.3a7.838,7.838,0,0,0-14.923,0Zm7.462-8.608A6.616,6.616,0,0,1,3.086,6.527,6.608,6.608,0,0,1,9.758,0,6.608,6.608,0,0,1,16.43,6.527,6.608,6.608,0,0,1,9.758,13.054Zm0-10.878A4.406,4.406,0,0,0,5.309,6.527a4.45,4.45,0,0,0,8.9,0A4.406,4.406,0,0,0,9.758,2.175Z" fill="#242424"/>
</svg>
